<svg xmlns="http://www.w3.org/2000/svg" width="1320" height="750" font-family="system-ui, Segoe UI, Arial, sans-serif" viewBox="0 0 1320 750"><rect width="100%" height="100%" fill="#0d1117"/><text x="220.0" y="44" fill="#e6edf6" font-size="21" font-weight="700" text-anchor="middle">Обычно — по углу</text><text x="220.0" y="70" fill="#9aa7b8" font-size="14" text-anchor="middle">сектор тот же, кольца шире → света больше</text><path d="M155.76,81.24 A228,228 0 0 1 284.24,81.24 L273.53,117.70 A190,190 0 0 0 166.47,117.70 Z" fill="#2b3442" stroke="#0d1117" stroke-width="2"/><path d="M284.24,81.24 A228,228 0 0 1 392.31,150.69 L363.59,175.58 A190,190 0 0 0 273.53,117.70 Z" fill="#222a35" stroke="#0d1117" stroke-width="2"/><path d="M392.31,150.69 A228,228 0 0 1 445.68,267.55 L408.07,272.96 A190,190 0 0 0 363.59,175.58 Z" fill="#2b3442" stroke="#0d1117" stroke-width="2"/><path d="M445.68,267.55 A228,228 0 0 1 427.40,394.71 L392.83,378.93 A190,190 0 0 0 408.07,272.96 Z" fill="#222a35" stroke="#0d1117" stroke-width="2"/><path d="M427.40,394.71 A228,228 0 0 1 343.27,491.81 L322.72,459.84 A190,190 0 0 0 392.83,378.93 Z" fill="#2b3442" stroke="#0d1117" stroke-width="2"/><path d="M343.27,491.81 A228,228 0 0 1 220.00,528.00 L220.00,490.00 A190,190 0 0 0 322.72,459.84 Z" fill="#222a35" stroke="#0d1117" stroke-width="2"/><path d="M220.00,528.00 A228,228 0 0 1 96.73,491.81 L117.28,459.84 A190,190 0 0 0 220.00,490.00 Z" fill="#2b3442" stroke="#0d1117" stroke-width="2"/><path d="M96.73,491.81 A228,228 0 0 1 12.60,394.71 L47.17,378.93 A190,190 0 0 0 117.28,459.84 Z" fill="#222a35" stroke="#0d1117" stroke-width="2"/><path d="M12.60,394.71 A228,228 0 0 1 -5.68,267.55 L31.93,272.96 A190,190 0 0 0 47.17,378.93 Z" fill="#2b3442" stroke="#0d1117" stroke-width="2"/><path d="M-5.68,267.55 A228,228 0 0 1 47.69,150.69 L76.41,175.58 A190,190 0 0 0 31.93,272.96 Z" fill="#222a35" stroke="#0d1117" stroke-width="2"/><path d="M47.69,150.69 A228,228 0 0 1 155.76,81.24 L166.47,117.70 A190,190 0 0 0 76.41,175.58 Z" fill="#2b3442" stroke="#0d1117" stroke-width="2"/><path d="M155.02,121.46 A190,190 0 0 1 284.98,121.46 L271.99,157.17 A152,152 0 0 0 168.01,157.17 Z" fill="#2b3442" stroke="#0d1117" stroke-width="2"/><path d="M284.98,121.46 A190,190 0 0 1 384.54,205.00 L351.64,224.00 A152,152 0 0 0 271.99,157.17 Z" fill="#222a35" stroke="#0d1117" stroke-width="2"/><path d="M384.54,205.00 A190,190 0 0 1 407.11,332.99 L369.69,326.39 A152,152 0 0 0 351.64,224.00 Z" fill="#2b3442" stroke="#0d1117" stroke-width="2"/><path d="M407.11,332.99 A190,190 0 0 1 342.13,445.55 L317.70,416.44 A152,152 0 0 0 369.69,326.39 Z" fill="#222a35" stroke="#0d1117" stroke-width="2"/><path d="M342.13,445.55 A190,190 0 0 1 220.00,490.00 L220.00,452.00 A152,152 0 0 0 317.70,416.44 Z" fill="#2b3442" stroke="#0d1117" stroke-width="2"/><path d="M220.00,490.00 A190,190 0 0 1 97.87,445.55 L122.30,416.44 A152,152 0 0 0 220.00,452.00 Z" fill="#222a35" stroke="#0d1117" stroke-width="2"/><path d="M97.87,445.55 A190,190 0 0 1 32.89,332.99 L70.31,326.39 A152,152 0 0 0 122.30,416.44 Z" fill="#2b3442" stroke="#0d1117" stroke-width="2"/><path d="M32.89,332.99 A190,190 0 0 1 55.46,205.00 L88.36,224.00 A152,152 0 0 0 70.31,326.39 Z" fill="#222a35" stroke="#0d1117" stroke-width="2"/><path d="M55.46,205.00 A190,190 0 0 1 155.02,121.46 L168.01,157.17 A152,152 0 0 0 88.36,224.00 Z" fill="#2b3442" stroke="#0d1117" stroke-width="2"/><path d="M154.05,163.05 A152,152 0 0 1 285.95,163.05 L269.46,197.29 A114,114 0 0 0 170.54,197.29 Z" fill="#2b3442" stroke="#0d1117" stroke-width="2"/><path d="M285.95,163.05 A152,152 0 0 1 368.19,266.18 L331.14,274.63 A114,114 0 0 0 269.46,197.29 Z" fill="#222a35" stroke="#0d1117" stroke-width="2"/><path d="M368.19,266.18 A152,152 0 0 1 338.84,394.77 L309.13,371.08 A114,114 0 0 0 331.14,274.63 Z" fill="#2b3442" stroke="#0d1117" stroke-width="2"/><path d="M338.84,394.77 A152,152 0 0 1 220.00,452.00 L220.00,414.00 A114,114 0 0 0 309.13,371.08 Z" fill="#222a35" stroke="#0d1117" stroke-width="2"/><path d="M220.00,452.00 A152,152 0 0 1 101.16,394.77 L130.87,371.08 A114,114 0 0 0 220.00,414.00 Z" fill="#2b3442" stroke="#0d1117" stroke-width="2"/><path d="M101.16,394.77 A152,152 0 0 1 71.81,266.18 L108.86,274.63 A114,114 0 0 0 130.87,371.08 Z" fill="#222a35" stroke="#0d1117" stroke-width="2"/><path d="M71.81,266.18 A152,152 0 0 1 154.05,163.05 L170.54,197.29 A114,114 0 0 0 108.86,274.63 Z" fill="#2b3442" stroke="#0d1117" stroke-width="2"/><path d="M152.99,207.77 A114,114 0 0 1 287.01,207.77 L264.67,238.51 A76,76 0 0 0 175.33,238.51 Z" fill="#2b3442" stroke="#0d1117" stroke-width="2"/><path d="M287.01,207.77 A114,114 0 0 1 328.42,335.23 L292.28,323.49 A76,76 0 0 0 264.67,238.51 Z" fill="#222a35" stroke="#0d1117" stroke-width="2"/><path d="M328.42,335.23 A114,114 0 0 1 220.00,414.00 L220.00,376.00 A76,76 0 0 0 292.28,323.49 Z" fill="#2b3442" stroke="#0d1117" stroke-width="2"/><path d="M220.00,414.00 A114,114 0 0 1 111.58,335.23 L147.72,323.49 A76,76 0 0 0 220.00,376.00 Z" fill="#222a35" stroke="#0d1117" stroke-width="2"/><path d="M111.58,335.23 A114,114 0 0 1 152.99,207.77 L175.33,238.51 A76,76 0 0 0 147.72,323.49 Z" fill="#2b3442" stroke="#0d1117" stroke-width="2"/><path d="M154.18,262.00 A76,76 0 0 1 285.82,262.00 L252.91,281.00 A38,38 0 0 0 187.09,281.00 Z" fill="#2b3442" stroke="#0d1117" stroke-width="2"/><path d="M285.82,262.00 A76,76 0 0 1 220.00,376.00 L220.00,338.00 A38,38 0 0 0 252.91,281.00 Z" fill="#222a35" stroke="#0d1117" stroke-width="2"/><path d="M220.00,376.00 A76,76 0 0 1 154.18,262.00 L187.09,281.00 A38,38 0 0 0 220.00,338.00 Z" fill="#2b3442" stroke="#0d1117" stroke-width="2"/><circle cx="220.0" cy="300" r="38" fill="#3a4250" stroke="#0d1117" stroke-width="2"/><path d="M154.18,262.00 A76,76 0 0 1 285.82,262.00 L252.91,281.00 A38,38 0 0 0 187.09,281.00 Z" fill="#ffd166" fill-opacity="0.55" stroke="#ffd166" stroke-width="1.5"/><text x="220.0" y="248.0" fill="#0d1117" font-size="13" font-weight="700" text-anchor="middle">1</text><path d="M121.27,243.00 A114,114 0 0 1 318.73,243.00 L285.82,262.00 A76,76 0 0 0 154.18,262.00 Z" fill="#ffd166" fill-opacity="0.55" stroke="#ffd166" stroke-width="1.5"/><text x="220.0" y="210.0" fill="#0d1117" font-size="13" font-weight="700" text-anchor="middle">1,67</text><path d="M88.36,224.00 A152,152 0 0 1 351.64,224.00 L318.73,243.00 A114,114 0 0 0 121.27,243.00 Z" fill="#ffd166" fill-opacity="0.55" stroke="#ffd166" stroke-width="1.5"/><text x="220.0" y="172.0" fill="#0d1117" font-size="13" font-weight="700" text-anchor="middle">2,33</text><path d="M55.46,205.00 A190,190 0 0 1 384.54,205.00 L351.64,224.00 A152,152 0 0 0 88.36,224.00 Z" fill="#ffd166" fill-opacity="0.55" stroke="#ffd166" stroke-width="1.5"/><text x="220.0" y="134.0" fill="#0d1117" font-size="13" font-weight="700" text-anchor="middle">3</text><path d="M22.55,186.00 A228,228 0 0 1 417.45,186.00 L384.54,205.00 A190,190 0 0 0 55.46,205.00 Z" fill="#ffd166" fill-opacity="0.55" stroke="#ffd166" stroke-width="1.5"/><text x="220.0" y="96.0" fill="#0d1117" font-size="13" font-weight="700" text-anchor="middle">3,67</text><circle cx="220.0" cy="300" r="6" fill="#ffd166"/><text x="70" y="562" fill="#c9d3e0" font-size="14">кольцо 2 (3 частей): свет на 1 ч.</text><text x="70" y="583" fill="#c9d3e0" font-size="14">кольцо 3 (5 частей): свет на 1,67 ч.</text><text x="70" y="604" fill="#c9d3e0" font-size="14">кольцо 4 (7 частей): свет на 2,33 ч.</text><text x="70" y="625" fill="#c9d3e0" font-size="14">кольцо 5 (9 частей): свет на 3 ч.</text><text x="70" y="646" fill="#c9d3e0" font-size="14">кольцо 6 (11 частей): свет на 3,67 ч.</text><text x="660.0" y="44" fill="#e6edf6" font-size="21" font-weight="700" text-anchor="middle">📏 по краю</text><text x="660.0" y="70" fill="#9aa7b8" font-size="14" text-anchor="middle">сужается в m/(m+1) — почти, но не ровно</text><path d="M595.76,81.24 A228,228 0 0 1 724.24,81.24 L713.53,117.70 A190,190 0 0 0 606.47,117.70 Z" fill="#2b3442" stroke="#0d1117" stroke-width="2"/><path d="M724.24,81.24 A228,228 0 0 1 832.31,150.69 L803.59,175.58 A190,190 0 0 0 713.53,117.70 Z" fill="#222a35" stroke="#0d1117" stroke-width="2"/><path d="M832.31,150.69 A228,228 0 0 1 885.68,267.55 L848.07,272.96 A190,190 0 0 0 803.59,175.58 Z" fill="#2b3442" stroke="#0d1117" stroke-width="2"/><path d="M885.68,267.55 A228,228 0 0 1 867.40,394.71 L832.83,378.93 A190,190 0 0 0 848.07,272.96 Z" fill="#222a35" stroke="#0d1117" stroke-width="2"/><path d="M867.40,394.71 A228,228 0 0 1 783.27,491.81 L762.72,459.84 A190,190 0 0 0 832.83,378.93 Z" fill="#2b3442" stroke="#0d1117" stroke-width="2"/><path d="M783.27,491.81 A228,228 0 0 1 660.00,528.00 L660.00,490.00 A190,190 0 0 0 762.72,459.84 Z" fill="#222a35" stroke="#0d1117" stroke-width="2"/><path d="M660.00,528.00 A228,228 0 0 1 536.73,491.81 L557.28,459.84 A190,190 0 0 0 660.00,490.00 Z" fill="#2b3442" stroke="#0d1117" stroke-width="2"/><path d="M536.73,491.81 A228,228 0 0 1 452.60,394.71 L487.17,378.93 A190,190 0 0 0 557.28,459.84 Z" fill="#222a35" stroke="#0d1117" stroke-width="2"/><path d="M452.60,394.71 A228,228 0 0 1 434.32,267.55 L471.93,272.96 A190,190 0 0 0 487.17,378.93 Z" fill="#2b3442" stroke="#0d1117" stroke-width="2"/><path d="M434.32,267.55 A228,228 0 0 1 487.69,150.69 L516.41,175.58 A190,190 0 0 0 471.93,272.96 Z" fill="#222a35" stroke="#0d1117" stroke-width="2"/><path d="M487.69,150.69 A228,228 0 0 1 595.76,81.24 L606.47,117.70 A190,190 0 0 0 516.41,175.58 Z" fill="#2b3442" stroke="#0d1117" stroke-width="2"/><path d="M595.02,121.46 A190,190 0 0 1 724.98,121.46 L711.99,157.17 A152,152 0 0 0 608.01,157.17 Z" fill="#2b3442" stroke="#0d1117" stroke-width="2"/><path d="M724.98,121.46 A190,190 0 0 1 824.54,205.00 L791.64,224.00 A152,152 0 0 0 711.99,157.17 Z" fill="#222a35" stroke="#0d1117" stroke-width="2"/><path d="M824.54,205.00 A190,190 0 0 1 847.11,332.99 L809.69,326.39 A152,152 0 0 0 791.64,224.00 Z" fill="#2b3442" stroke="#0d1117" stroke-width="2"/><path d="M847.11,332.99 A190,190 0 0 1 782.13,445.55 L757.70,416.44 A152,152 0 0 0 809.69,326.39 Z" fill="#222a35" stroke="#0d1117" stroke-width="2"/><path d="M782.13,445.55 A190,190 0 0 1 660.00,490.00 L660.00,452.00 A152,152 0 0 0 757.70,416.44 Z" fill="#2b3442" stroke="#0d1117" stroke-width="2"/><path d="M660.00,490.00 A190,190 0 0 1 537.87,445.55 L562.30,416.44 A152,152 0 0 0 660.00,452.00 Z" fill="#222a35" stroke="#0d1117" stroke-width="2"/><path d="M537.87,445.55 A190,190 0 0 1 472.89,332.99 L510.31,326.39 A152,152 0 0 0 562.30,416.44 Z" fill="#2b3442" stroke="#0d1117" stroke-width="2"/><path d="M472.89,332.99 A190,190 0 0 1 495.46,205.00 L528.36,224.00 A152,152 0 0 0 510.31,326.39 Z" fill="#222a35" stroke="#0d1117" stroke-width="2"/><path d="M495.46,205.00 A190,190 0 0 1 595.02,121.46 L608.01,157.17 A152,152 0 0 0 528.36,224.00 Z" fill="#2b3442" stroke="#0d1117" stroke-width="2"/><path d="M594.05,163.05 A152,152 0 0 1 725.95,163.05 L709.46,197.29 A114,114 0 0 0 610.54,197.29 Z" fill="#2b3442" stroke="#0d1117" stroke-width="2"/><path d="M725.95,163.05 A152,152 0 0 1 808.19,266.18 L771.14,274.63 A114,114 0 0 0 709.46,197.29 Z" fill="#222a35" stroke="#0d1117" stroke-width="2"/><path d="M808.19,266.18 A152,152 0 0 1 778.84,394.77 L749.13,371.08 A114,114 0 0 0 771.14,274.63 Z" fill="#2b3442" stroke="#0d1117" stroke-width="2"/><path d="M778.84,394.77 A152,152 0 0 1 660.00,452.00 L660.00,414.00 A114,114 0 0 0 749.13,371.08 Z" fill="#222a35" stroke="#0d1117" stroke-width="2"/><path d="M660.00,452.00 A152,152 0 0 1 541.16,394.77 L570.87,371.08 A114,114 0 0 0 660.00,414.00 Z" fill="#2b3442" stroke="#0d1117" stroke-width="2"/><path d="M541.16,394.77 A152,152 0 0 1 511.81,266.18 L548.86,274.63 A114,114 0 0 0 570.87,371.08 Z" fill="#222a35" stroke="#0d1117" stroke-width="2"/><path d="M511.81,266.18 A152,152 0 0 1 594.05,163.05 L610.54,197.29 A114,114 0 0 0 548.86,274.63 Z" fill="#2b3442" stroke="#0d1117" stroke-width="2"/><path d="M592.99,207.77 A114,114 0 0 1 727.01,207.77 L704.67,238.51 A76,76 0 0 0 615.33,238.51 Z" fill="#2b3442" stroke="#0d1117" stroke-width="2"/><path d="M727.01,207.77 A114,114 0 0 1 768.42,335.23 L732.28,323.49 A76,76 0 0 0 704.67,238.51 Z" fill="#222a35" stroke="#0d1117" stroke-width="2"/><path d="M768.42,335.23 A114,114 0 0 1 660.00,414.00 L660.00,376.00 A76,76 0 0 0 732.28,323.49 Z" fill="#2b3442" stroke="#0d1117" stroke-width="2"/><path d="M660.00,414.00 A114,114 0 0 1 551.58,335.23 L587.72,323.49 A76,76 0 0 0 660.00,376.00 Z" fill="#222a35" stroke="#0d1117" stroke-width="2"/><path d="M551.58,335.23 A114,114 0 0 1 592.99,207.77 L615.33,238.51 A76,76 0 0 0 587.72,323.49 Z" fill="#2b3442" stroke="#0d1117" stroke-width="2"/><path d="M594.18,262.00 A76,76 0 0 1 725.82,262.00 L692.91,281.00 A38,38 0 0 0 627.09,281.00 Z" fill="#2b3442" stroke="#0d1117" stroke-width="2"/><path d="M725.82,262.00 A76,76 0 0 1 660.00,376.00 L660.00,338.00 A38,38 0 0 0 692.91,281.00 Z" fill="#222a35" stroke="#0d1117" stroke-width="2"/><path d="M660.00,376.00 A76,76 0 0 1 594.18,262.00 L627.09,281.00 A38,38 0 0 0 660.00,338.00 Z" fill="#2b3442" stroke="#0d1117" stroke-width="2"/><circle cx="660.0" cy="300" r="38" fill="#3a4250" stroke="#0d1117" stroke-width="2"/><path d="M594.18,262.00 A76,76 0 0 1 725.82,262.00 L692.91,281.00 A38,38 0 0 0 627.09,281.00 Z" fill="#ffd166" fill-opacity="0.55" stroke="#ffd166" stroke-width="1.5"/><text x="660.0" y="248.0" fill="#0d1117" font-size="13" font-weight="700" text-anchor="middle">1</text><path d="M586.72,212.67 A114,114 0 0 1 733.28,212.67 L708.85,241.78 A76,76 0 0 0 611.15,241.78 Z" fill="#ffd166" fill-opacity="0.55" stroke="#ffd166" stroke-width="1.5"/><text x="660.0" y="210.0" fill="#0d1117" font-size="13" font-weight="700" text-anchor="middle">1,11</text><path d="M584.00,168.36 A152,152 0 0 1 736.00,168.36 L717.00,201.27 A114,114 0 0 0 603.00,201.27 Z" fill="#ffd166" fill-opacity="0.55" stroke="#ffd166" stroke-width="1.5"/><text x="660.0" y="172.0" fill="#0d1117" font-size="13" font-weight="700" text-anchor="middle">1,17</text><path d="M582.72,126.43 A190,190 0 0 1 737.28,126.43 L721.82,161.14 A152,152 0 0 0 598.18,161.14 Z" fill="#ffd166" fill-opacity="0.55" stroke="#ffd166" stroke-width="1.5"/><text x="660.0" y="134.0" fill="#0d1117" font-size="13" font-weight="700" text-anchor="middle">1,2</text><path d="M582.02,85.75 A228,228 0 0 1 737.98,85.75 L724.98,121.46 A190,190 0 0 0 595.02,121.46 Z" fill="#ffd166" fill-opacity="0.55" stroke="#ffd166" stroke-width="1.5"/><text x="660.0" y="96.0" fill="#0d1117" font-size="13" font-weight="700" text-anchor="middle">1,22</text><circle cx="660.0" cy="300" r="6" fill="#ffd166"/><text x="510" y="562" fill="#c9d3e0" font-size="14">кольцо 2 (3 частей): свет на 1 ч.</text><text x="510" y="583" fill="#c9d3e0" font-size="14">кольцо 3 (5 частей): свет на 1,11 ч.</text><text x="510" y="604" fill="#c9d3e0" font-size="14">кольцо 4 (7 частей): свет на 1,17 ч.</text><text x="510" y="625" fill="#c9d3e0" font-size="14">кольцо 5 (9 частей): свет на 1,2 ч.</text><text x="510" y="646" fill="#c9d3e0" font-size="14">кольцо 6 (11 частей): свет на 1,22 ч.</text><text x="1100.0" y="44" fill="#e6edf6" font-size="21" font-weight="700" text-anchor="middle">📏 по середине</text><text x="1100.0" y="70" fill="#9aa7b8" font-size="14" text-anchor="middle">сужается в (2m−1)/(2m+1) — ровно столько же частей</text><path d="M1035.76,81.24 A228,228 0 0 1 1164.24,81.24 L1153.53,117.70 A190,190 0 0 0 1046.47,117.70 Z" fill="#2b3442" stroke="#0d1117" stroke-width="2"/><path d="M1164.24,81.24 A228,228 0 0 1 1272.31,150.69 L1243.59,175.58 A190,190 0 0 0 1153.53,117.70 Z" fill="#222a35" stroke="#0d1117" stroke-width="2"/><path d="M1272.31,150.69 A228,228 0 0 1 1325.68,267.55 L1288.07,272.96 A190,190 0 0 0 1243.59,175.58 Z" fill="#2b3442" stroke="#0d1117" stroke-width="2"/><path d="M1325.68,267.55 A228,228 0 0 1 1307.40,394.71 L1272.83,378.93 A190,190 0 0 0 1288.07,272.96 Z" fill="#222a35" stroke="#0d1117" stroke-width="2"/><path d="M1307.40,394.71 A228,228 0 0 1 1223.27,491.81 L1202.72,459.84 A190,190 0 0 0 1272.83,378.93 Z" fill="#2b3442" stroke="#0d1117" stroke-width="2"/><path d="M1223.27,491.81 A228,228 0 0 1 1100.00,528.00 L1100.00,490.00 A190,190 0 0 0 1202.72,459.84 Z" fill="#222a35" stroke="#0d1117" stroke-width="2"/><path d="M1100.00,528.00 A228,228 0 0 1 976.73,491.81 L997.28,459.84 A190,190 0 0 0 1100.00,490.00 Z" fill="#2b3442" stroke="#0d1117" stroke-width="2"/><path d="M976.73,491.81 A228,228 0 0 1 892.60,394.71 L927.17,378.93 A190,190 0 0 0 997.28,459.84 Z" fill="#222a35" stroke="#0d1117" stroke-width="2"/><path d="M892.60,394.71 A228,228 0 0 1 874.32,267.55 L911.93,272.96 A190,190 0 0 0 927.17,378.93 Z" fill="#2b3442" stroke="#0d1117" stroke-width="2"/><path d="M874.32,267.55 A228,228 0 0 1 927.69,150.69 L956.41,175.58 A190,190 0 0 0 911.93,272.96 Z" fill="#222a35" stroke="#0d1117" stroke-width="2"/><path d="M927.69,150.69 A228,228 0 0 1 1035.76,81.24 L1046.47,117.70 A190,190 0 0 0 956.41,175.58 Z" fill="#2b3442" stroke="#0d1117" stroke-width="2"/><path d="M1035.02,121.46 A190,190 0 0 1 1164.98,121.46 L1151.99,157.17 A152,152 0 0 0 1048.01,157.17 Z" fill="#2b3442" stroke="#0d1117" stroke-width="2"/><path d="M1164.98,121.46 A190,190 0 0 1 1264.54,205.00 L1231.64,224.00 A152,152 0 0 0 1151.99,157.17 Z" fill="#222a35" stroke="#0d1117" stroke-width="2"/><path d="M1264.54,205.00 A190,190 0 0 1 1287.11,332.99 L1249.69,326.39 A152,152 0 0 0 1231.64,224.00 Z" fill="#2b3442" stroke="#0d1117" stroke-width="2"/><path d="M1287.11,332.99 A190,190 0 0 1 1222.13,445.55 L1197.70,416.44 A152,152 0 0 0 1249.69,326.39 Z" fill="#222a35" stroke="#0d1117" stroke-width="2"/><path d="M1222.13,445.55 A190,190 0 0 1 1100.00,490.00 L1100.00,452.00 A152,152 0 0 0 1197.70,416.44 Z" fill="#2b3442" stroke="#0d1117" stroke-width="2"/><path d="M1100.00,490.00 A190,190 0 0 1 977.87,445.55 L1002.30,416.44 A152,152 0 0 0 1100.00,452.00 Z" fill="#222a35" stroke="#0d1117" stroke-width="2"/><path d="M977.87,445.55 A190,190 0 0 1 912.89,332.99 L950.31,326.39 A152,152 0 0 0 1002.30,416.44 Z" fill="#2b3442" stroke="#0d1117" stroke-width="2"/><path d="M912.89,332.99 A190,190 0 0 1 935.46,205.00 L968.36,224.00 A152,152 0 0 0 950.31,326.39 Z" fill="#222a35" stroke="#0d1117" stroke-width="2"/><path d="M935.46,205.00 A190,190 0 0 1 1035.02,121.46 L1048.01,157.17 A152,152 0 0 0 968.36,224.00 Z" fill="#2b3442" stroke="#0d1117" stroke-width="2"/><path d="M1034.05,163.05 A152,152 0 0 1 1165.95,163.05 L1149.46,197.29 A114,114 0 0 0 1050.54,197.29 Z" fill="#2b3442" stroke="#0d1117" stroke-width="2"/><path d="M1165.95,163.05 A152,152 0 0 1 1248.19,266.18 L1211.14,274.63 A114,114 0 0 0 1149.46,197.29 Z" fill="#222a35" stroke="#0d1117" stroke-width="2"/><path d="M1248.19,266.18 A152,152 0 0 1 1218.84,394.77 L1189.13,371.08 A114,114 0 0 0 1211.14,274.63 Z" fill="#2b3442" stroke="#0d1117" stroke-width="2"/><path d="M1218.84,394.77 A152,152 0 0 1 1100.00,452.00 L1100.00,414.00 A114,114 0 0 0 1189.13,371.08 Z" fill="#222a35" stroke="#0d1117" stroke-width="2"/><path d="M1100.00,452.00 A152,152 0 0 1 981.16,394.77 L1010.87,371.08 A114,114 0 0 0 1100.00,414.00 Z" fill="#2b3442" stroke="#0d1117" stroke-width="2"/><path d="M981.16,394.77 A152,152 0 0 1 951.81,266.18 L988.86,274.63 A114,114 0 0 0 1010.87,371.08 Z" fill="#222a35" stroke="#0d1117" stroke-width="2"/><path d="M951.81,266.18 A152,152 0 0 1 1034.05,163.05 L1050.54,197.29 A114,114 0 0 0 988.86,274.63 Z" fill="#2b3442" stroke="#0d1117" stroke-width="2"/><path d="M1032.99,207.77 A114,114 0 0 1 1167.01,207.77 L1144.67,238.51 A76,76 0 0 0 1055.33,238.51 Z" fill="#2b3442" stroke="#0d1117" stroke-width="2"/><path d="M1167.01,207.77 A114,114 0 0 1 1208.42,335.23 L1172.28,323.49 A76,76 0 0 0 1144.67,238.51 Z" fill="#222a35" stroke="#0d1117" stroke-width="2"/><path d="M1208.42,335.23 A114,114 0 0 1 1100.00,414.00 L1100.00,376.00 A76,76 0 0 0 1172.28,323.49 Z" fill="#2b3442" stroke="#0d1117" stroke-width="2"/><path d="M1100.00,414.00 A114,114 0 0 1 991.58,335.23 L1027.72,323.49 A76,76 0 0 0 1100.00,376.00 Z" fill="#222a35" stroke="#0d1117" stroke-width="2"/><path d="M991.58,335.23 A114,114 0 0 1 1032.99,207.77 L1055.33,238.51 A76,76 0 0 0 1027.72,323.49 Z" fill="#2b3442" stroke="#0d1117" stroke-width="2"/><path d="M1034.18,262.00 A76,76 0 0 1 1165.82,262.00 L1132.91,281.00 A38,38 0 0 0 1067.09,281.00 Z" fill="#2b3442" stroke="#0d1117" stroke-width="2"/><path d="M1165.82,262.00 A76,76 0 0 1 1100.00,376.00 L1100.00,338.00 A38,38 0 0 0 1132.91,281.00 Z" fill="#222a35" stroke="#0d1117" stroke-width="2"/><path d="M1100.00,376.00 A76,76 0 0 1 1034.18,262.00 L1067.09,281.00 A38,38 0 0 0 1100.00,338.00 Z" fill="#2b3442" stroke="#0d1117" stroke-width="2"/><circle cx="1100.0" cy="300" r="38" fill="#3a4250" stroke="#0d1117" stroke-width="2"/><path d="M1034.18,262.00 A76,76 0 0 1 1165.82,262.00 L1132.91,281.00 A38,38 0 0 0 1067.09,281.00 Z" fill="#7ee787" fill-opacity="0.55" stroke="#ffd166" stroke-width="1.5"/><text x="1100.0" y="248.0" fill="#0d1117" font-size="13" font-weight="700" text-anchor="middle">1</text><path d="M1032.99,207.77 A114,114 0 0 1 1167.01,207.77 L1144.67,238.51 A76,76 0 0 0 1055.33,238.51 Z" fill="#7ee787" fill-opacity="0.55" stroke="#ffd166" stroke-width="1.5"/><text x="1100.0" y="210.0" fill="#0d1117" font-size="13" font-weight="700" text-anchor="middle">1</text><path d="M1034.05,163.05 A152,152 0 0 1 1165.95,163.05 L1149.46,197.29 A114,114 0 0 0 1050.54,197.29 Z" fill="#7ee787" fill-opacity="0.55" stroke="#ffd166" stroke-width="1.5"/><text x="1100.0" y="172.0" fill="#0d1117" font-size="13" font-weight="700" text-anchor="middle">1</text><path d="M1035.02,121.46 A190,190 0 0 1 1164.98,121.46 L1151.99,157.17 A152,152 0 0 0 1048.01,157.17 Z" fill="#7ee787" fill-opacity="0.55" stroke="#ffd166" stroke-width="1.5"/><text x="1100.0" y="134.0" fill="#0d1117" font-size="13" font-weight="700" text-anchor="middle">1</text><path d="M1035.76,81.24 A228,228 0 0 1 1164.24,81.24 L1153.53,117.70 A190,190 0 0 0 1046.47,117.70 Z" fill="#7ee787" fill-opacity="0.55" stroke="#ffd166" stroke-width="1.5"/><text x="1100.0" y="96.0" fill="#0d1117" font-size="13" font-weight="700" text-anchor="middle">1</text><circle cx="1100.0" cy="300" r="6" fill="#ffd166"/><text x="950" y="562" fill="#c9d3e0" font-size="14">кольцо 2 (3 частей): свет на 1 ч.</text><text x="950" y="583" fill="#c9d3e0" font-size="14">кольцо 3 (5 частей): свет на 1 ч.</text><text x="950" y="604" fill="#c9d3e0" font-size="14">кольцо 4 (7 частей): свет на 1 ч.</text><text x="950" y="625" fill="#c9d3e0" font-size="14">кольцо 5 (9 частей): свет на 1 ч.</text><text x="950" y="646" fill="#c9d3e0" font-size="14">кольцо 6 (11 частей): свет на 1 ч.</text><text x="660.0" y="735" fill="#9aa7b8" font-size="14" text-anchor="middle">Вырезы T−1: у кольца строки m — 2m−1 частей. Свет вышел из строки 1 шириной ровно в 1 часть кольца 2. Цифра на кольце — сколько частей накрыл свет.</text></svg>